# xmcd
#
# Track frame offsets: 
#        150
#        25087
#        38507
#        59282
#        76902
#        98620
#        116883
#        130289
#        145439
#        157364
#
# Disc length: 2334 seconds
#
# Revision: 0
# Processed by: cddbd v1.5.2PL0 Copyright (c) Steve Scherf et al.
# Submitted via: ExactAudioCopy v0.99pb3
#
DISCID=84091c0a
DTITLE=Various Artist - musikexpress sounds now 130
DYEAR=2007
DGENRE=Indie
TTITLE0=Die Türen - Indie Stadt
TTITLE1=Band Of Horses - Is There A Ghost
TTITLE2=Jens Friebe - Das mit dem Auto ist egal Hauptsache dir ist nic
TTITLE2=hts passiert
TTITLE3=Gravenhurst - Hollow Men
TTITLE4=Iron And Wine - Resurrection Fern
TTITLE5=Paul Dimmer Band - Groesser gleich
TTITLE6=Maritime - Guns Of Navarone
TTITLE7=Georgie James - Cake Parade
TTITLE8=The Fiery Furnaces - Ex-Guru
TTITLE9=Dapayk And Padberg - Doerti
EXTD=
EXTT0=
EXTT1=
EXTT2=
EXTT3=
EXTT4=
EXTT5=
EXTT6=
EXTT7=
EXTT8=
EXTT9=
PLAYORDER=
